PathFileType	4	(X/Y/Z)	C:/Users/opensim2020/Desktop/walking_exp_matlab/subject01_walking04_static.trc	
DataRate	CameraRate	NumFrames	NumMarkers	Units	OrigDataRate	OrigDataStartFrame	OrigNumFrames	
100.00	100.00	4	43	mm	100.00	161	321	
Frame#	Time	LFHD			RFHD			LBHD			RBHD			C7			T10			CLAV			STRN			RBAK			LSHO			LUPA			LELB			LFRM			LWRA			LWRB			LFIN			RSHO			RUPA			RELB			RFRM			RWRA			RWRB			RFIN			LASI			RASI			LPSI			RPSI			LTHI			LKNE			LTIB			LANK			LHEE			LTOE			RTHI			RKNE			RTIB			RANK			RHEE			RTOE			*39			*40			*41			*42			
		X1	Y1	Z1	X2	Y2	Z2	X3	Y3	Z3	X4	Y4	Z4	X5	Y5	Z5	X6	Y6	Z6	X7	Y7	Z7	X8	Y8	Z8	X9	Y9	Z9	X10	Y10	Z10	X11	Y11	Z11	X12	Y12	Z12	X13	Y13	Z13	X14	Y14	Z14	X15	Y15	Z15	X16	Y16	Z16	X17	Y17	Z17	X18	Y18	Z18	X19	Y19	Z19	X20	Y20	Z20	X21	Y21	Z21	X22	Y22	Z22	X23	Y23	Z23	X24	Y24	Z24	X25	Y25	Z25	X26	Y26	Z26	X27	Y27	Z27	X28	Y28	Z28	X29	Y29	Z29	X30	Y30	Z30	X31	Y31	Z31	X32	Y32	Z32	X33	Y33	Z33	X34	Y34	Z34	X35	Y35	Z35	X36	Y36	Z36	X37	Y37	Z37	X38	Y38	Z38	X39	Y39	Z39	X40	Y40	Z40	X41	Y41	Z41	X42	Y42	Z42	X43	Y43	Z43	

161	1.600	15.53593	-405.19858	1684.72485	12.95506	-291.08780	1694.17029	112.73152	-406.33655	1605.64148	114.04863	-285.75693	1613.80481	115.36488	-357.21072	1436.46082	137.99356	-346.15811	1142.54724	-31.87492	-346.09869	1375.99475	-81.92254	-345.68240	1221.87317	164.75172	-277.84726	1240.71094	20.23262	-510.84164	1398.20471	40.06862	-605.18158	1220.68115	49.21072	-627.63721	1072.37549	-2.28045	-636.51050	964.26868	-73.60052	-589.40057	853.02966	-32.97691	-634.04211	846.23505	-85.18484	-622.65265	779.39209	38.23838	-199.45276	1401.25415	88.27160	-83.60876	1210.81323	72.19722	-57.62394	1087.27661	23.69304	-38.99177	970.63275	-45.46264	-91.48980	856.81097	-26.02156	-36.85334	857.87006	-61.08127	-54.94102	781.43573	-48.74600	-444.80051	937.45679	-37.87469	-227.54340	941.42877	142.75198	-403.50317	952.01440	148.63858	-260.72638	957.50836	3.63240	-517.13367	606.64246	25.47039	-507.55472	472.47775	76.63039	-530.41724	293.08667	84.87035	-488.36633	71.57620	124.17088	-435.86050	39.29515	-64.27791	-509.10846	33.31742	35.92648	-157.10315	613.19171	27.34237	-172.96284	456.27307	73.78020	-150.84528	287.86777	79.99604	-179.07573	78.37462	124.71659	-227.60431	35.32732	-61.66062	-164.25984	37.06476	34.71403	-315.38504	1722.15930	-3101.81348	1973.16528	1023.42828	-3140.75806	2012.47693	1021.96436			 
162	1.610	15.62463	-405.22580	1684.73596	13.03820	-291.09207	1694.17749	112.81811	-406.40070	1605.66406	114.16582	-285.84583	1613.78333	115.44655	-357.24536	1436.49451	138.06154	-346.18787	1142.55225	-31.79489	-346.09906	1376.00146	-81.85431	-345.65182	1221.88269	164.85242	-277.88541	1240.70569	20.27144	-510.84668	1398.21667	40.06736	-605.19495	1220.67200	49.22756	-627.66205	1072.36462	-2.28629	-636.51178	964.25702	-73.59872	-589.37732	853.04968	-32.99170	-634.04352	846.24133	-85.21084	-622.62610	779.36743	38.36842	-199.46970	1401.26660	88.46581	-83.66787	1210.79810	72.37942	-57.69365	1087.26184	23.83524	-39.03886	970.63873	-45.31961	-91.52412	856.82935	-25.83363	-36.89703	857.88220	-60.86725	-54.94189	781.61713	-48.65060	-444.77118	937.47717	-37.75933	-227.53145	941.44403	142.86830	-403.49515	952.05725	148.56866	-260.62317	957.50183	3.73380	-517.15161	606.63184	25.56803	-507.56540	472.50122	76.69060	-530.42157	293.08701	84.90226	-488.28680	71.54961	124.19460	-435.86206	39.28270	-64.28178	-509.10812	33.32092	36.10796	-157.08595	613.20685	27.50136	-172.98201	456.31512	73.87071	-150.84918	287.86118	80.00985	-179.04950	78.38809	124.77679	-227.70934	35.41228	-61.67474	-164.26022	37.08270	34.80918	-315.41647	1722.17358	-3101.85791	1973.03345	1023.45740	-3140.57422	2012.51099	1021.97290			 
163	1.620	15.71345	-405.24792	1684.73547	13.12921	-291.10986	1694.17566	112.87068	-406.41858	1605.65808	114.25893	-285.87820	1613.80493	115.51807	-357.26727	1436.49976	138.12135	-346.18341	1142.56213	-31.71250	-346.07385	1376.00439	-81.79184	-345.59732	1221.88110	164.91803	-277.91287	1240.70190	20.33037	-510.86096	1398.20313	40.06346	-605.20709	1220.69385	49.25866	-627.68756	1072.37964	-2.30628	-636.50696	964.28339	-73.59506	-589.35364	853.06647	-32.99600	-634.05835	846.24780	-85.19457	-622.60712	779.37390	38.50090	-199.47734	1401.27612	88.65302	-83.71173	1210.81519	72.54820	-57.69213	1087.27844	24.01435	-39.05392	970.63861	-45.18402	-91.54830	856.84711	-25.71467	-36.91613	857.89526	-60.71976	-55.23595	781.41675	-48.50375	-444.75467	937.47552	-37.66355	-227.52676	941.44940	142.97206	-403.44745	952.05896	148.65797	-260.60092	957.55713	3.85427	-517.11621	606.64362	25.66456	-507.52081	472.49274	76.75227	-530.40063	293.10022	84.87971	-488.30853	71.58019	124.15202	-435.84198	39.27793	-64.28106	-509.08835	33.31582	36.24514	-157.07149	613.21857	27.58972	-172.95168	456.31979	73.95872	-150.85194	287.87793	79.96070	-179.03923	78.40329	124.78051	-227.62103	35.40504	-61.65615	-164.24966	37.09392	34.93457	-315.44400	1722.19897	-3102.00073	1973.08252	1023.32312	-3140.69751	2012.56958	1022.03058			 
164	1.630	15.78676	-405.25507	1684.73022	13.25719	-291.13266	1694.19006	112.97372	-406.41800	1605.61755	114.36900	-285.87552	1613.80518	115.59637	-357.27737	1436.51111	138.18713	-346.18625	1142.54944	-31.65267	-346.04871	1375.99683	-81.68356	-345.57907	1221.87207	165.03261	-277.95193	1240.70422	20.35290	-510.85837	1398.19531	40.06394	-605.22546	1220.67090	49.22492	-627.64056	1072.39429	-2.31476	-636.50867	964.29797	-73.58217	-589.35583	853.05450	-33.00986	-634.06348	846.26849	-85.23145	-622.64801	779.41785	38.63461	-199.48236	1401.30310	88.82025	-83.71542	1210.84644	72.69824	-57.73417	1087.27930	24.17123	-39.02955	970.63611	-45.07344	-91.57261	856.88336	-25.54281	-37.00174	857.89636	-60.66029	-54.97195	781.52338	-48.40197	-444.72885	937.46954	-37.52340	-227.50548	941.42609	143.08965	-403.38306	952.06085	148.96199	-260.67386	957.54590	3.93561	-517.17554	606.65613	25.72401	-507.55206	472.54620	76.76799	-530.40094	293.08624	84.87473	-488.29269	71.49567	124.18587	-435.86301	39.33372	-64.27744	-509.13235	33.33400	36.37509	-157.06300	613.22235	27.77331	-172.95093	456.30237	74.06096	-150.84314	287.85196	79.97857	-179.01753	78.43918	124.81040	-227.58989	35.37126	-61.65827	-164.23334	37.09612	35.03616	-315.47968	1722.23682	-3101.93555	1973.01892	1023.39978	-3140.49585	2012.53955	1021.99219			 
